<?xml version="1.0" encoding="UTF-8" standalone="no"?>
<!-- Generator: Adobe Illustrator 15.1.0, SVG Export Plug-In . SVG Version: 6.00 Build 0)  -->

<svg
   xmlns:dc="http://purl.org/dc/elements/1.1/"
   xmlns:cc="http://creativecommons.org/ns#"
   xmlns:rdf="http://www.w3.org/1999/02/22-rdf-syntax-ns#"
   xmlns:svg="http://www.w3.org/2000/svg"
   xmlns="http://www.w3.org/2000/svg"
   xmlns:sodipodi="http://sodipodi.sourceforge.net/DTD/sodipodi-0.dtd"
   xmlns:inkscape="http://www.inkscape.org/namespaces/inkscape"
   version="1.0"
   id="Layer_1"
   x="0px"
   y="0px"
   width="256"
   height="256"
   viewBox="0 0 256 256"
   enable-background="new 0 0 792 612"
   xml:space="preserve"
   inkscape:version="0.91 r13725"
   sodipodi:docname="css.svg"><metadata
     id="metadata49"><rdf:RDF><cc:Work
         rdf:about=""><dc:format>image/svg+xml</dc:format><dc:type
           rdf:resource="http://purl.org/dc/dcmitype/StillImage" /><dc:title></dc:title></cc:Work></rdf:RDF></metadata><defs
     id="defs47" /><sodipodi:namedview
     pagecolor="#ffffff"
     bordercolor="#666666"
     borderopacity="1"
     objecttolerance="10"
     gridtolerance="10"
     guidetolerance="10"
     inkscape:pageopacity="0"
     inkscape:pageshadow="2"
     inkscape:window-width="1440"
     inkscape:window-height="843"
     id="namedview45"
     showgrid="false"
     inkscape:zoom="2.1814013"
     inkscape:cx="59.36103"
     inkscape:cy="133.45723"
     inkscape:window-x="0"
     inkscape:window-y="27"
     inkscape:window-maximized="1"
     inkscape:current-layer="Layer_1" /><g
     id="g4177"
     transform="matrix(0.58883058,0,0,0.58883058,-222.96566,-42.36969)"><polygon
       id="polygon29"
       points="749.521,163.67 722.425,467.241 600.614,501.011 479.142,467.29 452.071,163.67 "
       style="fill:#1572b6" /><polygon
       id="polygon31"
       points="722.382,188.496 600.798,188.496 600.798,475.199 699.225,447.911 "
       style="fill:#33a9dc" /><g
       id="g33"><polygon
         id="polygon35"
         points="653.475,260.364 600.797,260.364 600.797,223.125 600.926,223.125 694.172,223.125 693.279,233.116 684.127,335.732 600.797,335.732 600.797,298.496 650.072,298.496 "
         style="fill:#ffffff" /><polygon
         id="polygon37"
         points="536.582,354.353 519.354,354.353 524.57,412.82 600.848,433.996 601.02,433.948 601.02,395.204 600.857,395.25 559.385,384.051 556.733,354.353 "
         style="fill:#ebebeb" /><polygon
         id="polygon39"
         points="642.423,384.026 600.891,395.236 600.891,433.978 677.23,412.82 677.79,406.53 684.268,334.156 646.907,334.156 "
         style="fill:#ffffff" /><polygon
         id="polygon41"
         points="600.926,260.272 600.926,260.364 511.098,260.364 511.098,260.364 510.979,260.364 510.232,251.994 508.535,233.116 507.645,223.125 600.926,223.125 600.926,246.253 "
         style="fill:#ebebeb" /><polygon
         id="polygon43"
         points="600.797,335.646 600.797,335.738 559.969,335.738 559.969,335.738 559.85,335.738 559.104,327.369 557.406,308.491 556.516,298.5 600.797,298.5 600.797,321.629 "
         style="fill:#ebebeb" /></g><g
       id="g25"><path
         id="path27"
         d="m 685.164,96.681 -24.688,0 25.674,27.859 0,13.261 -52.882,0 0,-15.526 25.669,0 -25.669,-27.86 0,-13.28 51.896,0 0,15.546 0,0 z m -62.378,0 -24.688,0 25.673,27.859 0,13.261 -52.882,0 0,-15.526 25.672,0 -25.672,-27.86 0,-13.28 51.897,0 0,15.546 z m -61.768,0.631 -26.64,0 0,24.313 26.64,0 0,16.176 -45.574,0 0,-56.666 45.574,0 0,16.177 z"
         inkscape:connector-curvature="0"
         style="fill:#131313" /></g></g></svg>