<?xml version="1.0" encoding="UTF-8" standalone="no"?>
<!-- Generator: Adobe Illustrator 15.1.0, SVG Export Plug-In . SVG Version: 6.00 Build 0)  -->

<svg
   xmlns:dc="http://purl.org/dc/elements/1.1/"
   xmlns:cc="http://creativecommons.org/ns#"
   xmlns:rdf="http://www.w3.org/1999/02/22-rdf-syntax-ns#"
   xmlns:svg="http://www.w3.org/2000/svg"
   xmlns="http://www.w3.org/2000/svg"
   xmlns:sodipodi="http://sodipodi.sourceforge.net/DTD/sodipodi-0.dtd"
   xmlns:inkscape="http://www.inkscape.org/namespaces/inkscape"
   version="1.0"
   id="Layer_1"
   x="0px"
   y="0px"
   width="256"
   height="256"
   viewBox="0 0 256 256"
   enable-background="new 0 0 792 612"
   xml:space="preserve"
   inkscape:version="0.91 r13725"
   sodipodi:docname="html.svg"><metadata
     id="metadata49"><rdf:RDF><cc:Work
         rdf:about=""><dc:format>image/svg+xml</dc:format><dc:type
           rdf:resource="http://purl.org/dc/dcmitype/StillImage" /><dc:title></dc:title></cc:Work></rdf:RDF></metadata><defs
     id="defs47" /><sodipodi:namedview
     pagecolor="#ffffff"
     bordercolor="#666666"
     borderopacity="1"
     objecttolerance="10"
     gridtolerance="10"
     guidetolerance="10"
     inkscape:pageopacity="0"
     inkscape:pageshadow="2"
     inkscape:window-width="1440"
     inkscape:window-height="843"
     id="namedview45"
     showgrid="false"
     inkscape:zoom="0.54535033"
     inkscape:cx="219.73426"
     inkscape:cy="372.48869"
     inkscape:window-x="0"
     inkscape:window-y="27"
     inkscape:window-maximized="1"
     inkscape:current-layer="Layer_1" /><g
     id="g3"
     transform="matrix(0.60383621,0,0,0.57198863,9.0546003,-34.301796)"><polygon
       points="48.313,163.646 345.763,163.646 318.665,467.217 196.856,500.986 75.383,467.266 "
       id="polygon5"
       style="fill:#e44f26" /><polygon
       points="197.038,188.471 197.038,475.175 295.465,447.887 318.623,188.471 "
       id="polygon7"
       style="fill:#f1662a" /><polygon
       points="147.763,301.08 144.359,262.948 197.038,262.948 197.038,225.709 196.909,225.709 103.663,225.709 104.555,235.7 113.707,338.316 197.038,338.316 197.038,301.08 "
       id="polygon9"
       style="fill:#ebebeb" /><polygon
       points="155.403,386.635 152.751,356.937 132.6,356.937 115.371,356.937 120.588,415.404 196.866,436.58 197.038,436.532 197.038,397.788 196.875,397.834 "
       id="polygon11"
       style="fill:#ebebeb" /><path
       d="m 75.988,81.135 18.924,0 0,18.696 17.311,0 0,-18.696 18.925,0 0,56.618 -18.924,0 0,-18.958 -17.31,0 0,18.958 -18.926,0 0,-56.618 0,0 z"
       id="path13"
       inkscape:connector-curvature="0"
       style="fill:#010101" /><path
       d="m 156.032,99.91 -16.66,0 0,-18.775 52.252,0 0,18.775 -16.667,0 0,37.843 -18.924,0 0,-37.843 -10e-4,0 z"
       id="path15"
       inkscape:connector-curvature="0"
       style="fill:#010101" /><path
       d="m 199.917,81.135 19.733,0 12.137,19.894 12.127,-19.894 19.739,0 0,56.618 -18.846,0 0,-28.063 -13.021,20.13 -0.325,0 -13.028,-20.13 0,28.063 -18.517,0 0,-56.618 z"
       id="path17"
       inkscape:connector-curvature="0"
       style="fill:#010101" /><path
       d="m 273.071,81.135 18.929,0 0,37.903 26.612,0 0,18.714 -45.542,0 0,-56.617 z"
       id="path19"
       inkscape:connector-curvature="0"
       style="fill:#010101" /><polygon
       points="196.909,301.08 196.909,338.316 242.763,338.316 238.441,386.61 196.909,397.82 196.909,436.562 273.249,415.404 273.808,409.114 282.559,311.079 283.467,301.08 273.433,301.08 "
       id="polygon21"
       style="fill:#ffffff" /><polygon
       points="196.909,248.837 196.909,262.856 196.909,262.948 286.736,262.948 286.736,262.948 286.856,262.948 287.603,254.578 289.299,235.7 290.19,225.709 196.909,225.709 "
       id="polygon23"
       style="fill:#ffffff" /></g></svg>